{"title":"Taken 2  (Extended) 1080p AC3 5.1ch 4GB M2TS piphead","uid":8215193,"size":4285606241,"categoryP":"video","categoryS":"hd___movies","magnet":"?xt=urn:btih:c5b22b0a37800338b71cd5e1e5337573120a7001&amp;dn=Taken+2++%28Extended%29+1080p+AC3+5.1ch+4GB+M2TS+piphead&amp;tr=udp%3A%2F%2Ftracker.openbittorrent.com%3A80&amp;tr=udp%3A%2F%2Fopen.demonii.com%3A1337&amp;tr=udp%3A%2F%2Ftracker.coppersurfer.tk%3A6969&amp;tr=udp%3A%2F%2Fexodus.desync.com%3A6969","seeders":1,"leechers":0,"uploader":"Coffeeman2cups","files":-1,"time":1362328586,"description":"General\nID : 1 (0x1)\nFormat : BDAV\nFormat/Info : Blu-ray Video\nFile size : 3.99 GiB\nDuration : 1h 38mn\nOverall bit rate mode : Variable\nOverall bit rate : 5 812 Kbps\nMaximum Overall bit rate : 35.5 Mbps\n\nVideo\nID : 4113 (0x1011)\nMenu ID : 1 (0x1)\nFormat : AVC\nFormat/Info : Advanced Video Codec\nFormat profile : &lt;a class=&quot;__cf_email__&quot; href=&quot;/cdn-cgi/l/email-protection&quot; data-cfemail=&quot;88c0e1efe0c8c4bca6b9&quot;&gt;[email&amp;#160;protected]&lt;/a&gt;&lt;script cf-hash='f9e31' type=&quot;text/javascript&quot;&gt;\n/* &lt;![CDATA[ */!function(){try{var t=&quot;currentScript&quot;in document?document.currentScript:function(){for(var t=document.getElementsByTagName(&quot;script&quot;),e=t.length;e--;)if(t[e].getAttribute(&quot;cf-hash&quot;))return t[e]}();if(t&amp;&amp;t.previousSibling){var e,r,n,i,c=t.previousSibling,a=c.getAttribute(&quot;data-cfemail&quot;);if(a){for(e=&quot;&quot;,r=parseInt(a.substr(0,2),16),n=2;a.length-n;n+=2)i=parseInt(a.substr(n,2),16)^r,e+=String.fromCharCode(i);e=document.createTextNode(e),c.parentNode.replaceChild(e,c)}}}catch(u){}}();/* ]]&gt; */&lt;/script&gt;\nFormat settings, CABAC : Yes\nFormat settings, ReFrames : 3 frames\nCodec ID : 27\nDuration : 1h 38mn\nBit rate mode : Variable\nBit rate : 4 832 Kbps\nMaximum bit rate : 24.0 Mbps\nWidth : 1 920 pixels\nHeight : 1 080 pixels\nDisplay aspect ratio : 16:9\nFrame rate : 23.976 fps\nColor space : YUV\nChroma subsampling : 4:2:0\nBit depth : 8 bits\nScan type : Progressive\nBits/(Pixel*Frame) : 0.097\nStream size : 3.39 GiB (85%)\nWriting library : x264 core 120 r2120 0c7dab9\nEncoding settings : cabac=1 / ref=3 / deblock=1:0:0 / analyse=0x3:0x113 / me=umh / subme=7 / psy=1 / psy_rd=1.00:0.25 / mixed_ref=1 / me_range=16 / chroma_me=1 / trellis=1 / 8x8dct=1 / cqm=0 / deadzone=21,11 / fast_pskip=1 / chroma_qp_offset=-4 / threads=6 / sliced_threads=0 / slices=4 / nr=0 / decimate=1 / interlaced=0 / bluray_compat=1 / constrained_intra=0 / bframes=3 / b_pyramid=1 / b_adapt=1 / b_bias=0 / direct=3 / weightb=1 / open_gop=1 / weightp=0 / keyint=24 / keyint_min=2 / scenecut=40 / intra_refresh=0 / rc_lookahead=24 / rc=2pass / mbtree=1 / bitrate=4832 / ratetol=1.0 / qcomp=0.60 / qpmin=0 / qpmax=69 / qpstep=4 / cplxblur=20.0 / qblur=0.5 / vbv_maxrate=24000 / vbv_bufsize=24000 / nal_hrd=vbr / ip_ratio=1.40 / aq=1:1.00\n\nAudio\nID : 4352 (0x1100)\nMenu ID : 1 (0x1)\nFormat : AC-3\nFormat/Info : Audio Coding 3\nMode extension : CM (complete main)\nFormat settings, Endianness : Big\nCodec ID : 129\nDuration : 1h 38mn\nBit rate mode : Constant\nBit rate : 640 Kbps\nChannel(s) : 6 channels\nChannel positions : Front: L C R, Side: L R, LFE\nSampling rate : 48.0 KHz\nBit depth : 16 bits\nCompression mode : Lossy\nStream size : 450 MiB (11%)\nLanguage : English\n\n &lt;a href=&quot;\nhttp://thepiratebay.se/search/4GB%20M2TS/0/99/0&quot; rel=&quot;nofollow&quot; target=&quot;_NEW&quot;&gt;\nhttp://thepiratebay.se/search/4GB%20M2TS/0/99/0&lt;/a&gt;\n &lt;a href=&quot;\nhttp://pirateproxy.net/search/4GB%20M2TS/0/99/0&quot; rel=&quot;nofollow&quot; target=&quot;_NEW&quot;&gt;\nhttp://pirateproxy.net/search/4GB%20M2TS/0/99/0&lt;/a&gt;","torrent":{"xt":"urn:btih:c5b22b0a37800338b71cd5e1e5337573120a7001","amp;dn":"Taken+2++%28Extended%29+1080p+AC3+5.1ch+4GB+M2TS+piphead","amp;tr":["udp%3A%2F%2Ftracker.openbittorrent.com%3A80","udp%3A%2F%2Fopen.demonii.com%3A1337","udp%3A%2F%2Ftracker.coppersurfer.tk%3A6969","udp%3A%2F%2Fexodus.desync.com%3A6969"],"infoHash":"c5b22b0a37800338b71cd5e1e5337573120a7001","infoHashBuffer":{"type":"Buffer","data":[197,178,43,10,55,128,3,56,183,28,213,225,229,51,117,115,18,10,112,1]},"announce":[],"urlList":[]}}